<?xml version="1.0" encoding="UTF-8"?>
<svg id="Layer_1" data-name="Layer 1" xmlns="http://www.w3.org/2000/svg" viewBox="0 0 1440 576">
  <defs>
    <style>
      .cls-1 {
        fill: #e02926;
      }

      .cls-2 {
        fill: #54565b;
      }
    </style>
  </defs>
  <g id="AFEX">
    <polygon class="cls-2" points="800.11 159.49 800.11 255.83 979.21 255.83 979.21 315.68 800.11 315.68 800.11 416.94 991.49 416.94 991.49 476.79 734.05 476.79 734.05 99.64 991.49 99.64 991.49 159.49 800.11 159.49"/>
    <polygon class="cls-2" points="526.14 159.49 526.14 255.83 705.26 255.83 705.26 315.68 526.14 315.68 526.14 476.79 460.1 476.79 460.1 99.64 717.55 99.64 717.55 159.49 526.14 159.49"/>
    <g id="AFEX_X" data-name="AFEX X">
      <polygon class="cls-1" points="1390.59 476.79 1303.94 476.79 1199.3 343.41 1094.65 476.79 1007.99 476.79 1155.98 288.21 1199.3 233 1242.61 288.21 1390.59 476.79"/>
      <polygon class="cls-2" points="1199.3 233 1155.98 288.21 1007.99 99.63 1094.65 99.63 1199.3 233"/>
      <polygon class="cls-2" points="1390.59 99.63 1242.61 288.21 1199.3 233 1303.94 99.63 1390.59 99.63"/>
    </g>
    <polygon class="cls-2" points="443.6 476.79 373.52 476.79 329.69 373.99 202.86 373.99 227.72 315.69 304.85 315.69 246.5 178.84 119.5 476.79 49.41 476.79 210.37 99.21 282.65 99.21 443.6 476.79"/>
  </g>
</svg>