<svg width="142" height="40" viewBox="0 0 142 40" fill="none" xmlns="http://www.w3.org/2000/svg">
<path d="M72.5 40V0H99.6871V6.5H79.5V16H98.5V23H79.5V33.5H99.6871V40H72.5Z" fill="white"/>
<path d="M43.5 0V40H51V23.5H69.5V16.5H51V6.5H71V0H43.5Z" fill="white"/>
<path d="M17 0L0 40H7.5L21 8.5L27 23H19L16.5 29H29.5L34.5 40H42L25 0H17Z" fill="white"/>
<path d="M101 0H110.5L121.5 14L132.5 0H142L126 20.5L121.5 14L117 20.5L101 0Z" fill="white"/>
<path d="M121.5 14L101.5 40H111L121.5 26L133 40H142L121.5 14Z" fill="#E1261C"/>
</svg>
