<svg width="114" height="46" viewBox="0 0 114 46" fill="none" xmlns="http://www.w3.org/2000/svg" class="logo"><path d="M83.6392 4.25729H81.9881C81.4107 4.25729 80.9414 3.78933 80.9414 3.21358V1.56715C80.9414 0.991394 81.4107 0.523438 81.9881 0.523438H83.6392C84.2166 0.523438 84.6858 0.991394 84.6858 1.56715V3.21358C84.6858 3.78933 84.2166 4.25729 83.6392 4.25729Z" fill="#3364AF"></path><path d="M90.9224 4.25729H89.2713C88.6939 4.25729 88.2246 3.78933 88.2246 3.21358V1.56715C88.2246 0.991394 88.6939 0.523438 89.2713 0.523438H90.9224C91.4998 0.523438 91.969 0.991394 91.969 1.56715V3.21358C91.969 3.78933 91.4998 4.25729 90.9224 4.25729Z" fill="#EFA91F"></path><path d="M98.3325 4.44577H96.6814C96.1041 4.44577 95.6348 3.97781 95.6348 3.40205V1.75563C95.6348 1.17987 96.1041 0.711914 96.6814 0.711914H98.3325C98.9099 0.711914 99.3792 1.17987 99.3792 1.75563V3.40205C99.3792 3.97781 98.9099 4.44577 98.3325 4.44577Z" fill="#7151A1"></path><path d="M0.290057 21.3837L7.92249 11.8535H1.02503C0.594863 11.8535 0.361342 11.6182 0.361342 11.1893V10.3044C0.361342 9.87544 0.597321 9.64258 1.02503 9.64258H10.2921C10.7223 9.64258 10.9558 9.87789 10.9558 10.3044V11.3952C10.9558 11.7261 10.8722 11.9614 10.6657 12.2089L3.04806 21.744H10.5699C11 21.744 11.2336 21.9793 11.2336 22.4083V23.2931C11.2336 23.7221 10.9976 23.9549 10.5699 23.9549H0.66369C0.233521 23.9549 0 23.7196 0 23.2931V22.2024C0 21.8714 0.0835758 21.6361 0.290057 21.3861" fill="#101010"></path><path d="M21.2776 22.1174C23.0917 22.1174 24.4486 21.4948 25.7514 20.2937C26.071 20.0045 26.3881 19.9898 26.6929 20.279L27.2066 20.7619C27.5114 21.0511 27.5384 21.3698 27.2484 21.6884C25.7809 23.2621 23.9938 24.2842 21.3465 24.2842C16.6785 24.2842 13.5469 20.9408 13.5469 16.7984C13.5469 12.6559 16.7744 9.3125 21.1375 9.3125C25.5007 9.3125 28.4504 12.5456 28.4504 16.4822C28.4504 16.6341 28.4357 16.8131 28.4234 16.9797C28.3816 17.394 28.1186 17.5876 27.7179 17.5876H16.123C16.4007 20.1442 18.5049 22.1174 21.2752 22.1174M16.2188 15.5017H25.8055C25.4171 13.1951 23.5612 11.4818 21.1375 11.4818C18.7138 11.4818 16.7178 13.2221 16.2188 15.5017Z" fill="#101010"></path><path d="M37.5813 9.29685C39.769 9.29685 41.6397 10.2773 42.9007 11.8117V4.44845C42.9007 4.01949 43.1366 3.78418 43.5644 3.78418H44.7565C45.1867 3.78418 45.4202 4.01949 45.4202 4.44845V23.2906C45.4202 23.7195 45.1843 23.9524 44.7565 23.9524H43.5644C43.1342 23.9524 42.9007 23.7171 42.9007 23.2906V21.7855C41.6397 23.3175 39.769 24.2857 37.5813 24.2857C33.4959 24.2857 30.502 20.9423 30.502 16.7999C30.502 12.6574 33.4935 9.2993 37.5813 9.2993M38.0115 22.0209C40.8383 22.0209 42.9007 19.6873 42.9007 16.7999C42.9007 13.9124 40.9047 11.5642 38.0115 11.5642C35.1183 11.5642 33.0658 13.9124 33.0658 16.7999C33.0658 19.6873 35.1847 22.0209 38.0115 22.0209Z" fill="#101010"></path><path d="M55.8259 9.3125C58.9993 9.3125 61.5459 10.9156 62.5291 13.6633C62.6963 14.1192 62.4333 14.4085 61.9613 14.4085H60.6462C60.2726 14.4085 60.0366 14.2295 59.8842 13.8839C59.2058 12.4059 57.7653 11.5627 56.0053 11.5627C53.5669 11.5627 51.0326 13.4966 51.0326 16.7984C51.0326 20.1001 53.6922 22.0341 56.2954 22.0341C57.9153 22.0341 59.4393 21.3159 60.4914 19.9898C60.7544 19.6589 61.0592 19.5902 61.4205 19.7961L61.9884 20.127C62.362 20.3354 62.4603 20.6663 62.2243 21.0389C60.8527 23.1665 58.7068 24.2842 56.1012 24.2842C52.1264 24.2842 48.4688 21.1075 48.4688 16.7984C48.4688 12.4892 51.6962 9.3125 55.8234 9.3125" fill="#101010"></path><path d="M73.275 11.6166C73.0267 11.5749 72.776 11.5602 72.4982 11.5602C70.3105 11.5602 68.3145 13.4795 68.3145 15.9797V23.2866C68.3145 23.7156 68.0785 23.9484 67.6508 23.9484H66.4586C66.0284 23.9484 65.7949 23.7131 65.7949 23.2866V10.3052C65.7949 9.87627 66.0309 9.64341 66.4586 9.64341H67.6508C68.081 9.64341 68.3145 9.87872 68.3145 10.3052V11.8397C69.2437 10.4033 70.9471 9.3125 72.9677 9.3125C73.1619 9.3125 73.3561 9.3125 73.5355 9.32721C73.9657 9.35417 74.1722 9.64586 74.1304 10.0601L74.0345 11.0822C73.9927 11.5235 73.7297 11.6901 73.2725 11.6215" fill="#101010"></path><path d="M82.9598 22.1174C84.7739 22.1174 86.1307 21.4948 87.4335 20.2937C87.7531 20.0045 88.0702 19.9898 88.375 20.279L88.8863 20.7619C89.1911 21.0511 89.2181 21.3698 88.9281 21.6884C87.4606 23.2621 85.6735 24.2842 83.0262 24.2842C78.3582 24.2842 75.2266 20.9408 75.2266 16.7984C75.2266 12.6559 78.4541 9.3125 82.8172 9.3125C87.1804 9.3125 90.1301 12.5456 90.1301 16.4822C90.1301 16.6341 90.1153 16.8131 90.1031 16.9797C90.0613 17.394 89.7982 17.5876 89.3976 17.5876H77.8027C78.0804 20.1442 80.1846 22.1174 82.9549 22.1174M77.8985 15.5017H87.4852C87.0968 13.1951 85.2409 11.4818 82.8172 11.4818C80.3935 11.4818 78.3975 13.2221 77.901 15.5017" fill="#101010"></path><path d="M94.0833 20.7202C94.983 21.5634 96.217 22.1149 97.5886 22.1149C99.4027 22.1149 100.526 21.2717 100.526 20.002C100.526 18.801 99.5846 18.0141 97.3403 17.5852C94.1817 16.9773 92.6724 15.4992 92.6724 13.276C92.6724 11.0528 94.4742 9.3125 97.478 9.3125C100 9.3125 101.841 10.4719 102.409 12.7392C102.52 13.1951 102.271 13.4721 101.814 13.4721H100.622C100.221 13.4721 100.027 13.2638 99.9017 12.8789C99.6239 12.0505 98.8349 11.4842 97.6574 11.4842C96.1752 11.4842 95.1919 12.2441 95.1919 13.3202C95.1919 14.3962 96.1604 15.1855 98.1564 15.585C101.453 16.2346 103.046 17.671 103.046 20.0462C103.046 22.4213 101.091 24.2867 97.7533 24.2867C95.6344 24.2867 94.0268 23.4582 92.7953 22.1051C92.5323 21.7865 92.547 21.4703 92.7953 21.1663L93.1419 20.7521C93.4319 20.4065 93.7515 20.4065 94.0833 20.7251" fill="#101010"></path><path d="M112.322 22.0762C112.501 22.0762 112.71 22.0762 112.917 22.0615C113.359 22.0346 113.61 22.2552 113.61 22.6964V23.3312C113.61 23.7038 113.457 23.9808 113.084 24.0911C112.612 24.2161 112.059 24.2847 111.56 24.2847C108.622 24.2847 107.002 22.7381 107.002 19.4094V11.8549H104.662C104.232 11.8549 103.996 11.6196 103.996 11.1906V10.3057C103.996 9.87679 104.232 9.64393 104.662 9.64393H107.002V6.77116C107.002 6.38387 107.197 6.13631 107.57 6.03826L108.775 5.70735C109.232 5.58234 109.522 5.80295 109.522 6.27357V9.64393H112.776C113.207 9.64393 113.44 9.87924 113.44 10.3057V11.1906C113.44 11.6196 113.204 11.8549 112.776 11.8549H109.522V19.3824C109.522 21.1914 110.299 22.0762 112.319 22.0762" fill="#101010"></path><path d="M14.1177 34.6299L11.2909 45.4763H9.66119L7.37515 36.4732L5.14072 45.4763H3.54787L0.671875 34.6299H2.15412L4.44016 43.6477L6.68933 34.6299H8.15683L10.4281 43.7335L12.6994 34.6299H14.1153H14.1177Z" fill="#101010"></path><path d="M33.9525 45.4763H26.7871V34.6299H33.9525V35.9118H28.2325V38.8827H33.9525V40.1646H28.2325V44.1919H33.9525V45.4738V45.4763Z" fill="#101010"></path><path d="M55.3511 45.4763H53.8099L52.743 42.454H48.0382L46.9714 45.4763H45.5039L49.4639 34.6299H51.3911L55.3511 45.4763ZM52.2981 41.2162L50.3906 35.8922L48.4758 41.2162H52.2957H52.2981Z" fill="#101010"></path><path d="M74.4115 45.4763H67.5312V34.6299H68.9766V44.1943H74.4115V45.4763Z" fill="#101010"></path><path d="M92.9074 35.9118H89.0211V45.4763H87.5757V35.9118H83.6895V34.6299H92.9074V35.9118Z" fill="#101010"></path><path d="M113.217 45.4763H111.771V40.1671H106.344V45.4763H104.898V34.6299H106.344V38.8827H111.771V34.6299H113.217V45.4763Z" fill="#101010"></path></svg>